<svg width="16" height="16" viewBox="0 0 16 16" fill="none" xmlns="http://www.w3.org/2000/svg">
<g clip-path="url(#clip0_6300_605)">
<mask id="stroke0_6300_605" fill="white">
<path d="M2 6C2 4.34315 3.34315 3 5 3H9C10.6569 3 12 4.34315 12 6V15.3773C12 15.8102 11.4873 16.0386 11.1655 15.749L7 12L2.84051 15.8683C2.52068 16.1658 2 15.939 2 15.5022V6Z"/>
</mask>
<path d="M7 12L11.1655 15.749C11.4873 16.0386 12 15.8102 12 15.3773V6C12 4.34315 10.6569 3 9 3H5C3.34315 3 2 4.34315 2 6V15.5022C2 15.939 2.52068 16.1658 2.84051 15.8683L7 12Z" stroke-width="2" stroke-linejoin="round" stroke="black" mask="url(#stroke0_6300_605)"/>
<path d="M5 2C5 1.44772 5.44772 1 6 1H10.5C12.433 1 14 2.567 14 4.5V12C14 12.5523 13.5523 13 13 13V4.5C13 3.11929 11.8807 2 10.5 2H5Z" fill-rule="evenodd" clip-rule="evenodd" fill="black"/>
</g>
<defs>
<clipPath id="clip0_6300_605">
<rect width="16" height="16" fill="white"/>
</clipPath>
</defs>
</svg>
