<svg width="16" height="16" viewBox="0 0 16 16" fill="none" xmlns="http://www.w3.org/2000/svg">
<g clip-path="url(#clip0_6300_125)">
<path d="M6.374 8.92V12.088C6.374 12.196 6.428 12.262 6.536 12.286C6.788 12.334 7.094 12.358 7.454 12.358C8.306 12.358 8.93 12.202 9.326 11.89C9.722 11.566 9.92 11.074 9.92 10.414C9.92 9.31 9.02 8.758 7.22 8.758H6.518C6.422 8.758 6.374 8.812 6.374 8.92ZM6.374 3.772V6.418C6.374 6.514 6.422 6.562 6.518 6.562H6.968C8.72 6.562 9.596 6.04 9.596 4.996C9.596 4 8.864 3.502 7.4 3.502C7.052 3.502 6.758 3.526 6.518 3.574C6.422 3.598 6.374 3.664 6.374 3.772ZM4.376 14.536C4.088 14.512 3.848 14.386 3.656 14.158C3.464 13.93 3.368 13.672 3.368 13.384V2.476C3.368 2.176 3.464 1.918 3.656 1.702C3.86 1.474 4.106 1.348 4.394 1.324C5.33 1.228 6.248 1.18 7.148 1.18C10.628 1.18 12.368 2.302 12.368 4.546C12.368 5.302 12.122 5.944 11.63 6.472C11.15 7 10.502 7.336 9.686 7.48C9.674 7.48 9.668 7.492 9.668 7.516C9.668 7.528 9.68 7.534 9.704 7.534C10.652 7.666 11.402 8.026 11.954 8.614C12.518 9.202 12.8 9.904 12.8 10.72C12.8 12.052 12.356 13.048 11.468 13.708C10.592 14.356 9.212 14.68 7.328 14.68C6.38 14.68 5.396 14.632 4.376 14.536Z" fill="black"/>
</g>
<defs>
<clipPath id="clip0_6300_125">
<rect width="16" height="16" fill="white"/>
</clipPath>
</defs>
</svg>
