<svg width="16" height="16" viewBox="0 0 16 16" fill="none" xmlns="http://www.w3.org/2000/svg">
<g clip-path="url(#clip0_6300_465)">
<path d="M11.5 8C11.5 9.933 9.933 11.5 8 11.5C6.067 11.5 4.5 9.933 4.5 8C4.5 6.067 6.067 4.5 8 4.5C9.933 4.5 11.5 6.067 11.5 8Z" stroke="black"/>
<path d="M8 0.5V1.5" stroke-linecap="round" stroke="black"/>
<path d="M2.49988 2.5L3.49988 3.5" stroke-linecap="round" stroke="black"/>
<path d="M0.500122 7.99994L1.50012 7.99994" stroke-linecap="round" stroke="black"/>
<path d="M2.49988 13.5L3.40376 12.5961" stroke-linecap="round" stroke="black"/>
<path d="M8 14.5V15.5" stroke-linecap="round" stroke="black"/>
<path d="M12.5962 12.5962L13.5 13.5" stroke-linecap="round" stroke="black"/>
<path d="M14.5 8L15.5 8" stroke-linecap="round" stroke="black"/>
<path d="M12.5962 3.40381L13.5 2.5" stroke-linecap="round" stroke="black"/>
</g>
<defs>
<clipPath id="clip0_6300_465">
<rect width="16" height="16" fill="white"/>
</clipPath>
</defs>
</svg>
